<?xml version="1.0" standalone="no"?>
<!DOCTYPE svg PUBLIC "-//W3C//DTD SVG 20010904//EN"
 "http://www.w3.org/TR/2001/REC-SVG-20010904/DTD/svg10.dtd">
<svg version="1.0" xmlns="http://www.w3.org/2000/svg"
 width="314.000000pt" height="314.000000pt" viewBox="0 0 314.000000 314.000000"
 preserveAspectRatio="xMidYMid meet">

<g transform="translate(0.000000,314.000000) scale(0.100000,-0.100000)"
fill="#000000" stroke="none">
<path d="M1225 3029 c-82 -12 -223 -53 -309 -90 -264 -115 -475 -319 -606
-584 -122 -246 -156 -503 -104 -778 70 -370 329 -699 680 -868 289 -138 653
-150 959 -32 82 31 122 51 212 105 l32 19 372 -358 c204 -197 381 -363 393
-370 33 -19 104 -16 141 7 42 26 68 88 59 138 -8 43 -42 79 -424 442 -151 145
-288 275 -304 291 l-30 28 41 49 c277 328 361 770 224 1175 -81 240 -229 442
-436 600 -142 108 -368 201 -550 227 -83 11 -266 11 -350 -1z m304 -249 c450
-57 797 -422 840 -883 28 -304 -81 -578 -318 -799 -188 -174 -430 -259 -700
-245 -142 8 -248 34 -366 91 -240 115 -416 315 -499 567 -226 680 331 1358
1043 1269z"/>
</g>
</svg>
