<svg xmlns="http://www.w3.org/2000/svg" xmlns:xlink="http://www.w3.org/1999/xlink" width="1080" zoomAndPan="magnify" viewBox="0 0 810 809.999993" height="1080" preserveAspectRatio="xMidYMid meet" version="1.0"><defs><clipPath id="311995536d"><path d="M 40.5 40.5 L 769.5 40.5 L 769.5 769.5 L 40.5 769.5 Z M 40.5 40.5 " clip-rule="nonzero"/></clipPath></defs><g clip-path="url(#311995536d)"><path fill="#2b2b2b" d="M 769.5 658.640625 C 769.5 719.824219 719.910156 769.414062 658.730469 769.414062 L 151.300781 769.414062 C 90.125 769.414062 40.527344 719.824219 40.527344 658.640625 L 40.527344 151.214844 C 40.527344 90.035156 90.125 40.441406 151.300781 40.441406 L 658.730469 40.441406 C 719.910156 40.441406 769.5 90.035156 769.5 151.214844 Z M 769.5 658.640625 " fill-opacity="1" fill-rule="nonzero"/></g><path fill="#ffffff" d="M 523.546875 461.566406 L 535.335938 370.167969 L 444.820312 370.167969 L 444.820312 311.808594 C 444.820312 285.34375 452.207031 267.308594 490.144531 267.308594 L 538.507812 267.285156 L 538.507812 185.539062 C 530.15625 184.421875 501.449219 181.933594 467.996094 181.933594 C 398.203125 181.933594 350.453125 224.539062 350.453125 302.765625 L 350.453125 370.167969 L 271.523438 370.167969 L 271.523438 461.570312 L 350.453125 461.570312 L 350.453125 696.09375 L 444.820312 696.09375 L 444.820312 461.566406 Z M 523.546875 461.566406 " fill-opacity="1" fill-rule="nonzero"/></svg>