<svg xmlns="http://www.w3.org/2000/svg" xmlns:xlink="http://www.w3.org/1999/xlink" width="1080" zoomAndPan="magnify" viewBox="0 0 810 809.999993" height="1080" preserveAspectRatio="xMidYMid meet" version="1.0"><defs><clipPath id="49ced2128c"><path d="M 40.5 40.5 L 769.5 40.5 L 769.5 769.5 L 40.5 769.5 Z M 40.5 40.5 " clip-rule="nonzero"/></clipPath></defs><g clip-path="url(#49ced2128c)"><path fill="#2b2b2b" d="M 769.5 658.710938 C 769.5 719.808594 719.808594 769.5 658.710938 769.5 L 151.289062 769.5 C 90.191406 769.5 40.5 719.808594 40.5 658.710938 L 40.5 151.289062 C 40.5 90.191406 90.191406 40.5 151.289062 40.5 L 658.710938 40.5 C 719.808594 40.5 769.5 90.191406 769.5 151.289062 Z M 769.5 658.710938 " fill-opacity="1" fill-rule="nonzero"/></g><path fill="#ffffff" d="M 252.570312 202.121094 L 567.695312 202.121094 C 597.613281 202.121094 622.203125 226.585938 622.203125 256.625 L 622.203125 571.753906 C 622.203125 601.667969 597.738281 626.132812 567.695312 626.132812 L 252.570312 626.132812 C 222.65625 626.132812 198.0625 601.667969 198.0625 571.753906 L 198.0625 256.625 C 198.0625 226.585938 222.527344 202.121094 252.570312 202.121094 Z M 506.851562 249.273438 C 496.332031 249.273438 487.839844 257.894531 487.839844 268.414062 L 487.839844 314.175781 C 487.839844 324.695312 496.457031 333.316406 506.851562 333.316406 L 554.640625 333.316406 C 565.160156 333.316406 573.65625 324.695312 573.65625 314.175781 L 573.65625 268.414062 C 573.65625 257.894531 565.035156 249.273438 554.640625 249.273438 Z M 574.160156 381.484375 L 536.894531 381.484375 C 540.316406 393.148438 542.34375 405.191406 542.34375 417.867188 C 542.34375 488.34375 483.273438 545.515625 410.640625 545.515625 C 338.007812 545.515625 278.9375 488.34375 278.9375 417.867188 C 278.9375 405.191406 280.839844 393.019531 284.386719 381.484375 L 245.472656 381.484375 L 245.472656 560.597656 C 245.472656 569.851562 253.078125 577.332031 262.332031 577.332031 L 557.554688 577.332031 C 566.808594 577.332031 574.414062 569.726562 574.414062 560.597656 Z M 410.386719 330.78125 C 363.484375 330.78125 325.332031 367.796875 325.332031 413.304688 C 325.332031 458.808594 363.484375 495.824219 410.386719 495.824219 C 457.414062 495.824219 495.445312 458.808594 495.445312 413.304688 C 495.570312 367.542969 457.542969 330.78125 410.386719 330.78125 Z M 410.386719 330.78125 " fill-opacity="1" fill-rule="nonzero"/></svg>